<svg xmlns="http://www.w3.org/2000/svg" xmlns:xlink="http://www.w3.org/1999/xlink" version="1.1" x="0px" y="0px" viewBox="0 0 90 112.5" enable-background="new 0 0 90 90" xml:space="preserve"><g><path d="M45,3.621C22.184,3.621,3.621,22.184,3.621,45S22.184,86.379,45,86.379S86.379,67.816,86.379,45S67.816,3.621,45,3.621z    M45,83.621C23.705,83.621,6.379,66.296,6.379,45C6.379,23.705,23.705,6.379,45,6.379c21.296,0,38.621,17.325,38.621,38.621   C83.621,66.296,66.296,83.621,45,83.621z"/><polygon points="36.579,59.734 20.769,43.529 18.622,45.624 36.552,64.004 71.365,29.191 69.244,27.07  "/></g><text x="0" y="105" fill="#000000" font-size="5px" font-weight="bold" font-family="'Helvetica Neue', Helvetica, Arial-Unicode, Arial, Sans-serif">Created by João Paulo</text><text x="0" y="110" fill="#000000" font-size="5px" font-weight="bold" font-family="'Helvetica Neue', Helvetica, Arial-Unicode, Arial, Sans-serif">from the Noun Project</text></svg>