<svg xmlns:dc="http://purl.org/dc/elements/1.1/" xmlns:cc="http://creativecommons.org/ns#" xmlns:rdf="http://www.w3.org/1999/02/22-rdf-syntax-ns#" xmlns:svg="http://www.w3.org/2000/svg" xmlns="http://www.w3.org/2000/svg" xmlns:sodipodi="http://sodipodi.sourceforge.net/DTD/sodipodi-0.dtd" xmlns:inkscape="http://www.inkscape.org/namespaces/inkscape" version="1.1" x="0px" y="0px" viewBox="0 0 100 125"><g transform="translate(0,-952.36218)"><path style="text-indent:0;text-transform:none;direction:ltr;block-progression:tb;baseline-shift:baseline;color:#000000;enable-background:accumulate;" d="m 11.8125,961.3622 c -0.458404,0.0875 -0.820725,0.5334 -0.8125,1 l 0,33.99999 c 5e-5,0.52359 0.476414,0.99995 1,1 l 32,0 c 0.523586,-5e-5 0.99995,-0.47641 1,-1 l 0,-33.99999 c -5e-5,-0.52358 -0.476414,-0.99995 -1,-1 -10.724294,0 -21.477153,0 -32.1875,0 z m 44,0 c -0.458404,0.0875 -0.820725,0.5334 -0.8125,1 l 0,79.9999 c 2.4e-5,0.5237 0.476398,1 1,1.0001 l 32,0 c 0.523602,-10e-5 0.999976,-0.4764 1,-1.0001 l 0,-79.9999 c -5e-5,-0.52358 -0.476414,-0.99995 -1,-1 -10.724294,0 -21.477153,0 -32.1875,0 z M 13,963.36221 l 30,0 0,31.99999 -30,0 z m 44,0 30,0 0,77.99999 -30,0 z m -29.125,7.96874 c -0.491226,0.0616 -0.894259,0.53655 -0.875,1.03125 l 0,6 c -2.053477,-3e-5 -4.149629,0 -6.1875,0 -0.524216,0.0483 -0.957004,0.56976 -0.907866,1.0939 0.04914,0.52413 0.571309,0.95608 1.095366,0.90609 l 6,0 0,6.00001 c -0.0075,0.5283 0.471635,1.01424 1,1.01424 0.528365,0 1.007472,-0.48594 1,-1.01424 l 0,-6.00001 6,0 c 0.528343,0.008 1.014334,-0.4716 1.014334,-0.99999 0,-0.5284 -0.485991,-1.00752 -1.014334,-1 l -6,0 0,-6 c 0.02261,-0.57823 -0.550909,-1.10396 -1.125,-1.03125 z m 36.9375,26.03124 c -0.524216,0.0483 -0.957004,0.56976 -0.907866,1.0939 0.04914,0.52414 0.571309,0.95608 1.095366,0.9061 l 14,0 c 0.528343,0.008 1.014334,-0.47161 1.014334,-1 0,-0.52839 -0.485991,-1.00752 -1.014334,-1 -4.722614,-1e-5 -9.4795,0 -14.1875,0 z m 0,8.00001 c -0.523601,0.049 -0.955341,0.5701 -0.906253,1.0937 0.04909,0.5237 0.570152,0.9554 1.093753,0.9063 l 14,0 c 0.528227,0.01 1.013978,-0.4717 1.013978,-1.0001 0,-0.5282 -0.485751,-1.0072 -1.013978,-0.9999 -4.722614,0 -9.4795,0 -14.1875,0 z m -53,2 c -0.45842,0.087 -0.820749,0.5334 -0.8125,1 l 0,33.9999 c 2.4e-5,0.5237 0.476398,1 1,1.0001 l 32,0 c 0.523602,-10e-5 0.999976,-0.4764 1,-1.0001 l 0,-33.9999 c -2.4e-5,-0.5236 -0.476398,-0.9999 -1,-1 -10.724294,0 -21.477153,0 -32.1875,0 z m 1.1875,2 30,0 0,32 -30,0 z m 7.8125,15 c -0.523601,0.049 -0.955341,0.5701 -0.906253,1.0937 0.04909,0.5237 0.570152,0.9554 1.093753,0.9063 l 14,0 c 0.528227,0.01 1.013978,-0.4717 1.013978,-1 0,-0.5283 -0.485751,-1.0073 -1.013978,-1 -4.722614,0 -9.4795,0 -14.1875,0 z" fill="#000000" fill-opacity="1" stroke="none" marker="none" visibility="visible" display="inline" overflow="visible"/></g><text x="0" y="115" fill="#000000" font-size="5px" font-weight="bold" font-family="'Helvetica Neue', Helvetica, Arial-Unicode, Arial, Sans-serif">Created by pam pyke</text><text x="0" y="120" fill="#000000" font-size="5px" font-weight="bold" font-family="'Helvetica Neue', Helvetica, Arial-Unicode, Arial, Sans-serif">from the Noun Project</text></svg>