<svg xmlns="http://www.w3.org/2000/svg" viewBox="0 0 64 80" x="0px" y="0px"><g data-name="Layer 4"><path d="M52,60.5a.52.52,0,0,1-.29-.09L32,46.75,12.28,60.41a.47.47,0,0,1-.51,0A.48.48,0,0,1,11.5,60V13.43A9.94,9.94,0,0,1,21.43,3.5H42.57a9.94,9.94,0,0,1,9.93,9.93V60a.48.48,0,0,1-.27.44A.46.46,0,0,1,52,60.5ZM32,45.64a.47.47,0,0,1,.28.09L51.5,59.05V13.43A9,9,0,0,0,42.57,4.5H21.43a9,9,0,0,0-8.93,8.93V59.05L31.72,45.73A.47.47,0,0,1,32,45.64Z"/></g><text x="0" y="79" fill="#000000" font-size="5px" font-weight="bold" font-family="'Helvetica Neue', Helvetica, Arial-Unicode, Arial, Sans-serif">Created by Colourcreatype</text><text x="0" y="84" fill="#000000" font-size="5px" font-weight="bold" font-family="'Helvetica Neue', Helvetica, Arial-Unicode, Arial, Sans-serif">from the Noun Project</text></svg>