<svg xmlns="http://www.w3.org/2000/svg" xmlns:xlink="http://www.w3.org/1999/xlink" version="1.1" x="0px" y="0px" viewBox="0 0 100 125" style="enable-background:new 0 0 100 100;" xml:space="preserve"><g><path d="M9.4,71.6c-1.4,0-2.5,1.1-2.5,2.5v5.3c0,5.4,4.4,9.8,9.9,9.8h66.5c5.5,0,9.9-4.4,9.9-9.8v-5.3c0-1.4-1.1-2.5-2.5-2.5   s-2.5,1.1-2.5,2.5v5.3c0,2.7-2.2,4.8-4.9,4.8H16.8c-2.7,0-4.9-2.2-4.9-4.8v-5.3C11.9,72.7,10.7,71.6,9.4,71.6z"/><path d="M49.1,10.8c-1.4,0-2.5,1.1-2.5,2.5v48.8l-14-12c-1-0.9-2.6-0.8-3.5,0.3c-0.9,1-0.8,2.6,0.3,3.5l18.2,15.6   c0,0,0.1,0.1,0.1,0.1c0.1,0,0.1,0.1,0.2,0.1c0.1,0,0.2,0.1,0.2,0.1c0.1,0,0.1,0.1,0.2,0.1c0.1,0,0.2,0.1,0.3,0.1c0.1,0,0.1,0,0.2,0   c0.2,0,0.3,0,0.5,0s0.3,0,0.5,0c0.1,0,0.1,0,0.2,0c0.1,0,0.2-0.1,0.3-0.1c0.1,0,0.1-0.1,0.2-0.1c0.1,0,0.2-0.1,0.2-0.1   c0.1,0,0.1-0.1,0.2-0.1c0,0,0.1-0.1,0.1-0.1l18.2-15.6c1-0.9,1.2-2.5,0.3-3.5c-0.9-1-2.5-1.2-3.5-0.3l-14,12V13.2   C51.6,11.9,50.5,10.8,49.1,10.8z"/></g><text x="0" y="115" fill="#000000" font-size="5px" font-weight="bold" font-family="'Helvetica Neue', Helvetica, Arial-Unicode, Arial, Sans-serif">Created by Genius Icons</text><text x="0" y="120" fill="#000000" font-size="5px" font-weight="bold" font-family="'Helvetica Neue', Helvetica, Arial-Unicode, Arial, Sans-serif">from the Noun Project</text></svg>