<svg xmlns="http://www.w3.org/2000/svg" viewBox="0 0 32 40" x="0px" y="0px"><title>arrow 50</title><g data-name="Layer 50"><path d="M30.66,8.63,20,17.93a1,1,0,0,1-1.36,0l-4.08-4L5.85,21.69l1.56,1.55a1,1,0,0,1,.21,1.09A1,1,0,0,1,6.7,25H2.05a1,1,0,0,1-1-1V19.3a1,1,0,0,1,1.71-.7l1.67,1.67,9.51-8.44a1,1,0,0,1,1.36,0l4.08,4,10-8.69a1,1,0,1,1,1.32,1.5Z"/></g><text x="0" y="47" fill="#000000" font-size="5px" font-weight="bold" font-family="'Helvetica Neue', Helvetica, Arial-Unicode, Arial, Sans-serif">Created by agus raharjo</text><text x="0" y="52" fill="#000000" font-size="5px" font-weight="bold" font-family="'Helvetica Neue', Helvetica, Arial-Unicode, Arial, Sans-serif">from the Noun Project</text></svg>