<svg xmlns="http://www.w3.org/2000/svg" data-name="Layer 1" viewBox="0 0 100 125" x="0px" y="0px"><title>14</title><g data-name="Group"><path data-name="Compound Path" d="M81.6,37.1a2,2,0,0,0-.6-1.4L55.9,10.7a2,2,0,0,0-1.4-.6H29.4a11,11,0,0,0-11,11V78.9a11,11,0,0,0,11,11H70.6a11,11,0,0,0,11-11Zm-24.9-20L74.6,35H64.7a8,8,0,0,1-8-8ZM77.6,78.9a7,7,0,0,1-7,7H29.4a7,7,0,0,1-7-7V21.1a7,7,0,0,1,7-7H52.7V27a12,12,0,0,0,12,12H77.6Z"/></g><text x="0" y="115" fill="#000000" font-size="5px" font-weight="bold" font-family="'Helvetica Neue', Helvetica, Arial-Unicode, Arial, Sans-serif">Created by Aiden Icons</text><text x="0" y="120" fill="#000000" font-size="5px" font-weight="bold" font-family="'Helvetica Neue', Helvetica, Arial-Unicode, Arial, Sans-serif">from the Noun Project</text></svg>