<svg xmlns="http://www.w3.org/2000/svg" version="1.1" viewBox="-5.0 -10.0 110.0 135.0">
 <g>
  <path d="m73.906 14.594h-15.219c-0.1875-4.625-4.0312-8.3438-8.6875-8.3438s-8.5 3.7188-8.6875 8.3438h-15.219c-2.7812 0-5.4375 1.1875-7.2812 3.2812-1.8438 2.125-2.6562 4.9062-2.2812 7.6562l0.28125 2.0312c0.21875 1.5625 1.5312 2.7188 3.0938 2.7188h60.188c1.5625 0 2.875-1.1562 3.0938-2.7188l0.28125-2.0312c0.375-2.75-0.4375-5.5312-2.2812-7.6562-1.8438-2.0938-4.5-3.2812-7.2812-3.2812zm-26.312 0c0.1875-1.1875 1.1875-2.0938 2.4062-2.0938s2.2188 0.90625 2.4062 2.0938z"/>
  <path d="m77.281 34.75h-54.562c-0.875 0-1.75 0.40625-2.3438 1.0625-0.59375 0.6875-0.875 1.5938-0.75 2.4688l6.4062 47.125c0.65625 4.75 4.7812 8.3438 9.5938 8.3438h28.75c4.8125 0 8.9375-3.5938 9.5938-8.3438l6.4062-47.125c0.125-0.875-0.15625-1.7812-0.75-2.4688-0.59375-0.65625-1.4688-1.0625-2.3438-1.0625z"/>
 </g>
<text x="0.0" y="117.5" font-size="5.0" font-weight="bold" font-family="Arbeit Regular, Helvetica, Arial-Unicode, Arial, Sans-serif" fill="#000000">Created by Kiki Rizky</text><text x="0.0" y="122.5" font-size="5.0" font-weight="bold" font-family="Arbeit Regular, Helvetica, Arial-Unicode, Arial, Sans-serif" fill="#000000">from Noun Project</text></svg>