<svg xmlns="http://www.w3.org/2000/svg" xmlns:xlink="http://www.w3.org/1999/xlink" xml:space="preserve" version="1.1" style="shape-rendering:geometricPrecision;text-rendering:geometricPrecision;image-rendering:optimizeQuality;" viewBox="0 0 1000 1250" x="0px" y="0px" fill-rule="evenodd" clip-rule="evenodd"><defs><style type="text/css">
   
    .fil0 {fill:black;fill-rule:nonzero}
   
  </style></defs><g><path class="fil0" d="M500 -1c136,0 259,54 349,142l87 -55 9 289 -254 -136 87 -55c-74,-65 -171,-105 -278,-105 -116,0 -221,47 -298,123 -76,77 -123,182 -123,298 0,116 47,221 123,298 77,76 182,123 298,123 116,0 221,-47 298,-123 75,-76 122,-179 123,-294l80 -4 0 0c0,138 -56,264 -147,354 -90,91 -216,147 -354,147 -138,0 -264,-56 -354,-147 -91,-90 -147,-216 -147,-354 0,-138 56,-264 147,-354 90,-91 216,-147 354,-147z"/></g><text x="0" y="1015" fill="#000000" font-size="5px" font-weight="bold" font-family="'Helvetica Neue', Helvetica, Arial-Unicode, Arial, Sans-serif">Created by Puput Nugroho</text><text x="0" y="1020" fill="#000000" font-size="5px" font-weight="bold" font-family="'Helvetica Neue', Helvetica, Arial-Unicode, Arial, Sans-serif">from the Noun Project</text></svg>