<svg xmlns="http://www.w3.org/2000/svg" version="1.1" viewBox="-5.0 -10.0 110.0 135.0">
 <g>
  <path d="m83.859 18.102c-4.6758-0.14453-4.9805 6.668-0.41016 7.0195 1.832 0.10547 3.2656 1.6367 3.2656 3.4883v6.6016h-73.43v-6.6016c0-1.832 1.3867-3.3359 3.2266-3.4961 4.6055-0.47266 3.9844-7.3672-0.61719-7.0078-5.5 0.48438-9.6445 5-9.6445 10.504v49.027c0 5.8164 4.7344 10.551 10.551 10.551h66.398c5.8164 0 10.551-4.7344 10.551-10.551v-49.027c0-5.5703-4.3438-10.188-9.8906-10.508zm-0.66016 63.055-66.398-0.003906c-1.9375 0-3.5156-1.5781-3.5156-3.5156v-35.391h73.434v35.391c0 1.9414-1.5781 3.5156-3.5156 3.5156z"/>
  <path d="m30.27 31.312c1.9414 0 3.5156-1.5742 3.5156-3.5156v-2.7031h32.297v2.7031c0 1.9453 1.5742 3.5156 3.5156 3.5156s3.5156-1.5742 3.5156-3.5156v-12.469c0-1.9453-1.5742-3.5156-3.5156-3.5156s-3.5156 1.5742-3.5156 3.5156v2.7305h-32.297v-2.7305c-0.066406-4.6172-6.9609-4.625-7.0352 0v12.469c0 1.9453 1.5742 3.5156 3.5156 3.5156z"/>
  <path d="m31.09 50.656h-6.0586c-1.9414 0-3.5156 1.5742-3.5156 3.5156 0 1.9453 1.5742 3.5156 3.5156 3.5156h6.0586c4.6211-0.078125 4.625-6.957 0-7.0352z"/>
  <path d="m53.027 50.656h-6.0586c-1.9414 0-3.5156 1.5742-3.5156 3.5156 0 1.9453 1.5742 3.5156 3.5156 3.5156h6.0586c4.6211-0.078125 4.625-6.957 0-7.0352z"/>
  <path d="m74.969 50.656h-6.0586c-1.9414 0-3.5156 1.5742-3.5156 3.5156 0 1.9453 1.5742 3.5156 3.5156 3.5156h6.0586c4.6211-0.078125 4.625-6.957 0-7.0352z"/>
  <path d="m31.09 65.699h-6.0586c-1.9414 0-3.5156 1.5742-3.5156 3.5156 0 1.9453 1.5742 3.5156 3.5156 3.5156h6.0586c4.6211-0.078125 4.625-6.957 0-7.0352z"/>
  <path d="m53.027 65.699h-6.0586c-1.9414 0-3.5156 1.5742-3.5156 3.5156 0 1.9453 1.5742 3.5156 3.5156 3.5156h6.0586c4.6211-0.078125 4.625-6.957 0-7.0352z"/>
  <path d="m74.969 65.699h-6.0586c-1.9414 0-3.5156 1.5742-3.5156 3.5156 0 1.9453 1.5742 3.5156 3.5156 3.5156h6.0586c4.6211-0.078125 4.625-6.957 0-7.0352z"/>
 </g>
<text x="0.0" y="117.5" font-size="5.0" font-weight="bold" font-family="Arbeit Regular, Helvetica, Arial-Unicode, Arial, Sans-serif" fill="#000000">Created by Contributor Icons</text><text x="0.0" y="122.5" font-size="5.0" font-weight="bold" font-family="Arbeit Regular, Helvetica, Arial-Unicode, Arial, Sans-serif" fill="#000000">from Noun Project</text></svg>